# xmcd
#
# Track frame offsets:
#	190
#	15419
#	29749
#	44276
#	56985
#	71215
#	87215
#	98942
#	110703
#	121379
#	144140
#	158981
#	172871
#	184096
#	199627
#	221142
#	235104
#	253928
#	267187
#	282101
#
# Disc length: 4023 seconds
#
# Revision: 0
# Processed by: cddbd v1.5.2PL0 Copyright (c) Steve Scherf et al.
# Submitted via: EasyCDDAExtractor 9.1.1.5
#
DISCID=260fb514
DTITLE=Bles Bridges - The English Album
DYEAR=2008
DGENRE=Country
TTITLE0=My love
TTITLE1=Beautiful Noise
TTITLE2=It's Now Or Never
TTITLE3=Love And Roses
TTITLE4=Help Yourself
TTITLE5=This Time Tomorrow
TTITLE6=Pretty Belinda
TTITLE7=Am I That Easy To Forget
TTITLE8=Happy Birthday To My Darling
TTITLE9=I Need You
TTITLE10=More And More
TTITLE11=It's You It's You It's You
TTITLE12=The Last Rose
TTITLE13=I Love You More And More Everyday
TTITLE14=What Am I Living For
TTITLE15=One Dance With You
TTITLE16=Have You Ever Loved A Woman
TTITLE17=The Great Pretender
TTITLE18=Crowded Rooms
TTITLE19=Rosemarie
EXTD=
EXTT0=
EXTT1=
EXTT2=
EXTT3=
EXTT4=
EXTT5=
EXTT6=
EXTT7=
EXTT8=
EXTT9=
EXTT10=
EXTT11=
EXTT12=
EXTT13=
EXTT14=
EXTT15=
EXTT16=
EXTT17=
EXTT18=
EXTT19=
PLAYORDER=
